HIERARCHY
ROOT Hips
{
	OFFSET 0.00000 0.00000 0.00000
	CHANNELS 6 Xposition Yposition Zposition Zrotation Yrotation Xrotation 
	JOINT LHipJoint
	{
		OFFSET 0 0 0
		CHANNELS 3 Zrotation Yrotation Xrotation
		JOINT LeftUpLeg
		{
			OFFSET 1.38280 -1.96574 0.54427
			CHANNELS 3 Zrotation Yrotation Xrotation
			JOINT LeftLeg
			{
				OFFSET 2.72096 -7.47578 0.00000
				CHANNELS 3 Zrotation Yrotation Xrotation
				JOINT LeftFoot
				{
					OFFSET 2.73041 -7.50176 0.00000
					CHANNELS 3 Zrotation Yrotation Xrotation
					JOINT LeftToeBase
					{
						OFFSET 0.16150 -0.44371 2.18031
						CHANNELS 3 Zrotation Yrotation Xrotation
						End Site
						{
							OFFSET 0.00000 -0.00000 1.12127
						}
					}
				}
			}
		}
	}
	JOINT RHipJoint
	{
		OFFSET 0 0 0
		CHANNELS 3 Zrotation Yrotation Xrotation
		JOINT RightUpLeg
		{
			OFFSET -1.57224 -1.96575 0.54427
			CHANNELS 3 Zrotation Yrotation Xrotation
			JOINT RightLeg
			{
				OFFSET -2.95935 -8.13076 0.00000
				CHANNELS 3 Zrotation Yrotation Xrotation
				JOINT RightFoot
				{
					OFFSET -2.52345 -6.93311 0.00000
					CHANNELS 3 Zrotation Yrotation Xrotation
					JOINT RightToeBase
					{
						OFFSET -0.04475 -0.10171 1.86688
						CHANNELS 3 Zrotation Yrotation Xrotation
						End Site
						{
							OFFSET -0.00000 -0.00000 0.95157
						}
					}
				}
			}
		}
	}
	JOINT LowerBack
	{
		OFFSET 0 0 0
		CHANNELS 3 Zrotation Yrotation Xrotation
		JOINT Spine
		{
			OFFSET 0.00669 2.07367 0.09104
			CHANNELS 3 Zrotation Yrotation Xrotation
			JOINT Spine1
			{
				OFFSET -0.00664 2.06198 -0.04732
				CHANNELS 3 Zrotation Yrotation Xrotation
				JOINT Neck
				{
					OFFSET 0 0 0
					CHANNELS 3 Zrotation Yrotation Xrotation
					JOINT Neck1
					{
						OFFSET -0.00021 1.49948 0.16345
						CHANNELS 3 Zrotation Yrotation Xrotation
						JOINT Head
						{
							OFFSET 0.06080 1.50567 -0.26702
							CHANNELS 3 Zrotation Yrotation Xrotation
							End Site
							{
								OFFSET 0.01726 1.56470 -0.11854
							}
						}
					}
				}
				JOINT LeftShoulder
				{
					OFFSET 0 0 0
					CHANNELS 3 Zrotation Yrotation Xrotation
					JOINT LeftArm
					{
						OFFSET 3.14993 0.82932 -0.22488
						CHANNELS 3 Zrotation Yrotation Xrotation
						JOINT LeftForeArm
						{
							OFFSET 5.68236 -0.00000 -0.00000
							CHANNELS 3 Zrotation Yrotation Xrotation
							JOINT LeftHand
							{
								OFFSET 3.17112 -0.00000 0.00000
								CHANNELS 3 Zrotation Yrotation Xrotation
								JOINT LeftFingerBase
								{
									OFFSET 0 0 0
									CHANNELS 3 Zrotation Yrotation Xrotation
									JOINT LeftHandIndex1
									{
										OFFSET 0.63269 -0.00000 0.00000
										CHANNELS 3 Zrotation Yrotation Xrotation
										End Site
										{
											OFFSET 0.51009 -0.00000 0.00000
										}
									}
								}
								JOINT LThumb
								{
									OFFSET 0 0 0
									CHANNELS 3 Zrotation Yrotation Xrotation
									End Site
									{
										OFFSET 0.51788 -0.00000 0.51788
									}
								}
							}
						}
					}
				}
				JOINT RightShoulder
				{
					OFFSET 0 0 0
					CHANNELS 3 Zrotation Yrotation Xrotation
					JOINT RightArm
					{
						OFFSET -3.10571 0.91279 -0.33334
						CHANNELS 3 Zrotation Yrotation Xrotation
						JOINT RightForeArm
						{
							OFFSET -5.87120 -0.00000 -0.00000
							CHANNELS 3 Zrotation Yrotation Xrotation
							JOINT RightHand
							{
								OFFSET -3.37589 -0.00000 0.00000
								CHANNELS 3 Zrotation Yrotation Xrotation
								JOINT RightFingerBase
								{
									OFFSET 0 0 0
									CHANNELS 3 Zrotation Yrotation Xrotation
									JOINT RightHandIndex1
									{
										OFFSET -0.60326 -0.00000 0.00000
										CHANNELS 3 Zrotation Yrotation Xrotation
										End Site
										{
											OFFSET -0.48636 -0.00000 0.00000
										}
									}
								}
								JOINT RThumb
								{
									OFFSET 0 0 0
									CHANNELS 3 Zrotation Yrotation Xrotation
									End Site
									{
										OFFSET -0.49379 -0.00000 0.49379
									}
								}
							}
						}
					}
				}
			}
		}
	}
}
MOTION
Frames: 15
Frame Time: .0083333
2.5384 18.4312 13.3648 -710.7840 88.0200 1098.2300 0.0000 0.0000 0.0000 -22.6538 -5.3046 -23.0380 2.4463 9.7396 28.1375 0.9843 1.2632 -19.2415 0.4307 -4.2115 -11.6724 0.0000 0.0000 0.0000 10.0129 13.8316 -20.4187 -4.3560 -12.6197 37.9610 -0.1064 -1.3051 -6.7855 -11.3919 18.1216 -64.0478 -3.4279 -0.3428 -10.6686 1.7787 -0.1256 2.4221 3.8136 -0.2893 8.6045 -1.9019 0.4434 -19.6832 -1.5697 1.6024 18.4623 -0.0076 0.4618 9.0456 0.0000 0.0000 0.0000 -80.7389 -13.6876 40.9926 21.2592 -32.1297 -6.1872 -0.0000 0.0000 -14.6098 13.2634 31.3038 6.9823 -7.1250 0.0000 -0.0000 -21.5312 60.6735 -8.4531 0.0000 0.0000 0.0000 87.6672 1.3667 37.4295 -44.4452 50.4938 -21.8098 0.0000 0.0000 6.4068 -24.5093 32.5897 -13.7970 7.1250 -0.0000 -0.0000 4.1826 5.0278 4.5447
2.5809 18.4316 13.3694 -709.4060 88.1367 1099.5900 0.0000 0.0000 0.0000 -22.6783 -5.3331 -22.8270 2.4411 9.7301 28.1070 0.9988 1.1864 -19.3466 0.4315 -4.2156 -11.6841 0.0000 0.0000 0.0000 9.6820 14.3126 -20.4993 -4.1091 -12.3042 36.8168 -0.1195 -0.8977 -6.9211 -10.8861 17.8789 -62.4110 -3.4700 -0.4214 -10.6204 1.8150 -0.2294 2.4095 3.8574 -0.3420 8.5733 -1.9314 0.4539 -19.6751 -1.5308 1.6170 18.4737 0.0125 0.4709 9.0475 0.0000 -0.0000 0.0000 -80.6884 -14.0869 41.3628 21.4181 -32.3131 -6.2719 -0.0000 0.0000 -14.7261 13.1705 31.2533 6.9222 -7.1250 0.0000 -0.0000 -21.5879 60.6048 -8.4411 0.0000 -0.0000 0.0000 87.5995 1.1065 37.0680 -44.3954 50.4688 -21.7715 0.0000 0.0000 6.5113 -24.5829 32.7214 -13.8900 7.1250 -0.0000 -0.0000 4.1639 5.1805 4.5344
2.6232 18.4327 13.3739 -707.3900 88.2519 1101.5900 0.0000 0.0000 0.0000 -22.7219 -5.3507 -22.6111 2.4310 9.7114 28.0472 1.0091 1.1716 -19.4374 0.4496 -4.3017 -11.9270 0.0000 0.0000 0.0000 9.3341 14.7920 -20.5606 -3.8658 -11.9797 35.6602 -0.1302 -0.4398 -6.9890 -10.2678 17.5577 -60.3797 -3.5176 -0.5016 -10.5689 1.8447 -0.3341 2.3945 3.8971 -0.3951 8.5380 -1.9624 0.4643 -19.6727 -1.4816 1.6302 18.4985 0.0363 0.4801 9.0548 -0.0000 -0.0000 0.0000 -80.6464 -14.5075 41.7358 21.5595 -32.4756 -6.3477 -0.0000 0.0000 -14.8528 13.1038 31.3304 6.9014 -7.1250 0.0000 -0.0000 -21.7218 60.6599 -8.5250 -0.0000 -0.0000 0.0000 87.5237 0.8448 36.6897 -44.3359 50.4389 -21.7255 0.0000 0.0000 6.5958 -24.5934 32.9035 -13.9625 7.1250 -0.0000 -0.0000 4.1893 5.3700 4.5748
2.6648 18.4346 13.3788 -705.1860 88.3648 1103.7700 0.0000 0.0000 0.0000 -22.7658 -5.3670 -22.3871 2.4172 9.6858 27.9653 1.0181 1.1863 -19.5283 0.4756 -4.4226 -12.2688 0.0000 0.0000 0.0000 8.9944 15.2740 -20.5970 -3.6278 -11.6479 34.4974 -0.1368 0.0777 -6.9582 -9.5101 17.1250 -57.8382 -3.5613 -0.5844 -10.5210 1.8753 -0.4428 2.3888 3.9351 -0.4504 8.5154 -1.9922 0.4738 -19.6772 -1.4310 1.6418 18.5317 0.0602 0.4887 9.0663 -0.0000 -0.0000 0.0000 -80.6110 -14.9589 42.1111 21.6809 -32.6145 -6.4130 -0.0000 0.0000 -14.9955 13.0978 31.4179 6.9153 -7.1250 0.0000 -0.0000 -21.8006 60.7389 -8.5989 -0.0000 -0.0000 0.0000 87.4333 0.6023 36.2983 -44.2542 50.3978 -21.6626 0.0000 0.0000 6.6818 -24.6413 33.1158 -14.0690 7.1250 -0.0000 -0.0000 4.1995 5.5993 4.6011
2.7059 18.4367 13.3844 -703.3220 88.4862 1105.6000 0.0000 0.0000 0.0000 -22.7892 -5.3850 -22.1504 2.4018 9.6572 27.8735 1.0256 1.2325 -19.6165 0.5036 -4.5492 -12.6272 0.0000 0.0000 0.0000 8.6874 15.7623 -20.6001 -3.3969 -11.3114 33.3373 -0.1368 0.6413 -6.7873 -8.6001 16.5433 -54.6964 -3.5888 -0.6759 -10.4783 1.9148 -0.5659 2.4016 3.9712 -0.5131 8.5177 -2.0022 0.4894 -19.6807 -1.4081 1.6620 18.5550 0.0724 0.4997 9.0745 -0.0000 -0.0000 0.0000 -80.5726 -15.4264 42.4805 21.7979 -32.7479 -6.4762 -0.0000 0.0000 -15.1452 13.1353 31.4410 6.9401 -7.1250 0.0000 -0.0000 -21.7803 60.7691 -8.6062 -0.0000 -0.0000 0.0000 87.3248 0.3887 35.9028 -44.1427 50.3415 -21.5767 0.0000 0.0000 6.8029 -24.7784 33.3226 -14.2294 7.1250 -0.0000 -0.0000 4.1598 5.8442 4.5732
2.7467 18.4383 13.3909 -701.6260 88.6206 1107.2400 0.0000 0.0000 0.0000 -22.7929 -5.4140 -21.8971 2.3873 9.6301 27.7870 1.0312 1.3143 -19.7032 0.5253 -4.6446 -12.8976 0.0000 0.0000 0.0000 8.4051 16.2628 -20.5690 -3.1750 -10.9731 32.1893 -0.1286 1.2062 -6.4564 -7.5488 15.7772 -50.9208 -3.6010 -0.7786 -10.4378 1.9582 -0.7061 2.4334 4.0000 -0.5842 8.5437 -1.9657 0.5193 -19.6913 -1.4359 1.6992 18.5643 0.0620 0.5163 9.0801 -0.0000 0.0000 0.0000 -80.5140 -15.8899 42.8392 21.9286 -32.8963 -6.5470 -0.0000 0.0000 -15.2885 13.1671 31.3880 6.9469 -7.1250 0.0000 -0.0000 -21.7026 60.7280 -8.5524 -0.0000 0.0000 0.0000 87.2039 0.2019 35.5099 -44.0030 50.2706 -21.4692 0.0000 0.0000 6.9791 -25.0148 33.4826 -14.4361 7.1250 -0.0000 -0.0000 4.0576 6.0656 4.4744
2.7874 18.4388 13.3984 -699.3470 88.7586 1109.4600 0.0000 0.0000 0.0000 -22.7937 -5.4591 -21.6330 2.3755 9.6080 27.7163 1.0365 1.4050 -19.7905 0.5368 -4.6946 -13.0395 0.0000 0.0000 0.0000 8.1223 16.7743 -20.5157 -2.9638 -10.6362 31.0625 -0.1125 1.7111 -5.9707 -6.3853 14.7916 -46.5093 -3.6166 -0.8865 -10.3963 1.9978 -0.8527 2.4729 4.0255 -0.6588 8.5783 -1.8777 0.5630 -19.7204 -1.5110 1.7512 18.5759 0.0288 0.5381 9.0907 0.0000 0.0000 0.0000 -80.4376 -16.3375 43.1884 22.0734 -33.0598 -6.6258 -0.0000 0.0000 -15.3982 13.1514 31.3028 6.9217 -7.1250 0.0000 -0.0000 -21.6487 60.6459 -8.4875 0.0000 0.0000 0.0000 87.0715 0.0165 35.1111 -43.8690 50.2022 -21.3662 0.0000 0.0000 7.1967 -25.3034 33.5843 -14.6557 7.1250 -0.0000 -0.0000 3.9170 6.2407 4.3292
2.8279 18.4382 13.4068 -695.5600 88.8900 1113.1900 0.0000 0.0000 0.0000 -22.8065 -5.5220 -21.3646 2.3661 9.5903 27.6600 1.0427 1.4754 -19.8777 0.5425 -4.7190 -13.1088 0.0000 0.0000 0.0000 7.8264 17.2804 -20.4587 -2.7642 -10.3032 29.9643 -0.0901 2.1127 -5.3310 -5.1411 13.5409 -41.4287 -3.6545 -0.9912 -10.3541 2.0317 -0.9915 2.5091 4.0590 -0.7306 8.6089 -1.7616 0.6103 -19.7612 -1.6122 1.8060 18.5906 -0.0174 0.5601 9.1051 -0.0000 0.0000 0.0000 -80.3669 -16.7763 43.5409 22.2195 -33.2242 -6.7057 -0.0000 0.0000 -15.4645 13.0834 31.2562 6.8758 -7.1250 0.0000 -0.0000 -21.6822 60.5866 -8.4706 -0.0000 0.0000 0.0000 86.9185 -0.1962 34.6834 -43.7990 50.1664 -21.3125 0.0000 0.0000 7.3956 -25.5235 33.6665 -14.8259 7.1250 -0.0000 -0.0000 3.8108 6.3795 4.2195
2.8683 18.4374 13.4159 -689.1680 89.0039 1119.5300 0.0000 0.0000 0.0000 -22.8452 -5.5829 -21.0934 2.3569 9.5729 27.6045 1.0505 1.4855 -19.9533 0.5432 -4.7220 -13.1174 0.0000 0.0000 0.0000 7.5114 17.7719 -20.4058 -2.5773 -9.9772 28.9029 -0.0641 2.3829 -4.5453 -3.8523 11.9612 -35.5948 -3.7260 -1.0906 -10.3086 2.0596 -1.1184 2.5387 4.1072 -0.7979 8.6302 -1.6498 0.6528 -19.7952 -1.7160 1.8555 18.5909 -0.0646 0.5792 9.1135 -0.0000 -0.0000 0.0000 -80.3141 -17.2185 43.9120 22.3602 -33.3817 -6.7829 -0.0000 0.0000 -15.5160 12.9907 31.2862 6.8317 -7.1250 0.0000 -0.0000 -21.8048 60.5922 -8.5241 -0.0000 -0.0000 0.0000 86.7358 -0.4369 34.2141 -43.8168 50.1755 -21.3261 0.0000 0.0000 7.4991 -25.5412 33.8034 -14.8880 7.1250 -0.0000 -0.0000 3.8262 6.5243 4.2452
2.9083 18.4374 13.4257 -679.8290 89.0809 1128.8100 0.0000 0.0000 0.0000 -22.9184 -5.5866 -20.8290 2.3445 9.5495 27.5298 1.0574 1.4065 -19.9837 0.5434 -4.7228 -13.1196 0.0000 0.0000 0.0000 7.1756 18.2659 -20.3527 -2.4044 -9.6619 27.8888 -0.0387 2.4926 -3.6580 -2.5903 10.0002 -28.9774 -3.8287 -1.1866 -10.2563 2.0809 -1.2366 2.5611 4.1678 -0.8621 8.6400 -1.5728 0.6877 -19.7937 -1.7975 1.8979 18.5619 -0.0996 0.5956 9.1049 0.0000 0.0000 0.0000 -80.2682 -17.6579 44.3120 22.5033 -33.5412 -6.8619 -0.0000 0.0000 -15.5963 12.9105 31.3777 6.8061 -7.1250 0.0000 -0.0000 -21.9652 60.6572 -8.6246 0.0000 0.0000 0.0000 86.5249 -0.6960 33.7044 -43.9064 50.2213 -21.3950 0.0000 0.0000 7.4950 -25.2909 34.0516 -14.8194 7.1250 -0.0000 -0.0000 4.0091 6.7167 4.4608
2.9481 18.4386 13.4360 -669.0200 89.1066 1139.5600 0.0000 0.0000 0.0000 -23.0178 -5.4946 -20.5791 2.3265 9.5155 27.4215 1.0600 1.2559 -19.9447 0.5480 -4.7426 -13.1758 0.0000 0.0000 0.0000 6.8259 18.7922 -20.2904 -2.2467 -9.3621 26.9348 -0.0183 2.4200 -2.7476 -1.4870 7.7040 -21.8185 -3.9491 -1.2813 -10.2046 2.0978 -1.3503 2.5835 4.2346 -0.9249 8.6506 -1.5533 0.7133 -19.7560 -1.8365 1.9333 18.5071 -0.1117 0.6101 9.0800 -0.0000 0.0000 0.0000 -80.2138 -18.0938 44.7329 22.6548 -33.7091 -6.9457 -0.0000 0.0000 -15.7318 12.8653 31.4869 6.8027 -7.1250 0.0000 -0.0000 -22.1041 60.7466 -8.7295 -0.0000 0.0000 0.0000 86.2935 -0.9580 33.1640 -44.0405 50.2896 -21.4980 0.0000 0.0000 7.4565 -24.8394 34.3933 -14.6535 7.1250 -0.0000 -0.0000 4.3184 6.9545 4.8225
2.9877 18.4404 13.4472 -658.7240 89.0838 1149.7900 0.0000 0.0000 0.0000 -23.1317 -5.3104 -20.3444 2.3036 9.4718 27.2825 1.0572 1.0595 -19.8387 0.5534 -4.7655 -13.2411 0.0000 0.0000 0.0000 6.4656 19.3683 -20.2130 -2.1057 -9.0828 26.0548 -0.0054 2.1740 -1.9093 -0.6764 5.2590 -14.6488 -4.0795 -1.3786 -10.1636 2.1118 -1.4656 2.6176 4.3035 -0.9898 8.6812 -1.5882 0.7338 -19.7336 -1.8288 1.9680 18.4636 -0.0988 0.6253 9.0606 -0.0000 -0.0000 0.0000 -80.1424 -18.5396 45.1435 22.8063 -33.8763 -7.0300 -0.0000 0.0000 -15.9134 12.8382 31.5633 6.8026 -7.1250 0.0000 -0.0000 -22.1969 60.8100 -8.8019 -0.0000 -0.0000 0.0000 86.0476 -1.2029 32.6128 -44.1890 50.3649 -21.6124 0.0000 0.0000 7.4904 -24.4148 34.7423 -14.5039 7.1250 -0.0000 -0.0000 4.6131 7.2065 5.1712
3.0267 18.4418 13.4596 -649.9600 89.0281 1158.4800 0.0000 0.0000 0.0000 -23.2505 -5.0528 -20.1363 2.2795 9.4254 27.1354 1.0478 0.8605 -19.6737 0.5699 -4.8345 -13.4372 0.0000 0.0000 0.0000 6.1014 19.9859 -20.1234 -1.9815 -8.8275 25.2572 0.0004 1.7998 -1.2193 -0.2020 2.8937 -7.9829 -4.2143 -1.4814 -10.1293 2.1222 -1.5874 2.6622 4.3700 -1.0586 8.7286 -1.6446 0.7577 -19.7658 -1.7899 2.0097 18.4706 -0.0705 0.6447 9.0678 0.0000 0.0000 0.0000 -80.0557 -18.9905 45.5134 22.9479 -34.0318 -7.1091 -0.0000 0.0000 -16.1001 12.7920 31.5781 6.7804 -7.1250 0.0000 -0.0000 -22.2581 60.8125 -8.8289 0.0000 0.0000 0.0000 85.7919 -1.4376 32.0644 -44.3450 50.4435 -21.7325 0.0000 0.0000 7.6642 -24.2398 35.0167 -14.4863 7.1250 -0.0000 -0.0000 4.7581 7.4430 5.3518
3.0650 18.4417 13.4734 -642.7060 88.9691 1165.6700 0.0000 0.0000 0.0000 -23.3477 -4.7742 -19.9609 2.2592 9.3863 27.0114 1.0338 0.7165 -19.4882 0.6122 -5.0079 -13.9310 0.0000 0.0000 0.0000 5.7659 20.6108 -20.0295 -1.8733 -8.5970 24.5425 0.0019 1.3619 -0.6902 -0.0136 0.7531 -2.0696 -4.3352 -1.5879 -10.0903 2.1340 -1.7161 2.7074 4.4287 -1.1302 8.7748 -1.6808 0.7896 -19.8376 -1.7561 2.0599 18.5180 -0.0459 0.6681 9.0963 -0.0000 0.0000 0.0000 -79.9665 -19.4347 45.8394 23.0727 -34.1682 -7.1791 -0.0000 0.0000 -16.2479 12.7168 31.5525 6.7348 -7.1250 0.0000 -0.0000 -22.3158 60.7711 -8.8311 -0.0000 0.0000 0.0000 85.5236 -1.6809 31.5136 -44.5241 50.5332 -21.8707 0.0000 0.0000 7.9494 -24.3301 35.2045 -14.6098 7.1250 -0.0000 -0.0000 4.7437 7.6557 5.3506
3.1021 18.4400 13.4887 -636.2740 88.9297 1172.0300 0.0000 0.0000 0.0000 -23.3958 -4.5534 -19.7994 2.2468 9.3622 26.9351 1.0227 0.6357 -19.3538 0.6677 -5.2257 -14.5534 0.0000 0.0000 0.0000 5.4958 21.1968 -19.9367 -1.7792 -8.3903 23.9059 0.0017 0.9255 -0.2744 -0.0300 -1.1177 3.0727 -4.4247 -1.6937 -10.0382 2.1528 -1.8493 2.7456 4.4765 -1.2019 8.8060 -1.6747 0.8297 -19.9059 -1.7554 2.1162 18.5622 -0.0386 0.6937 9.1239 0.0000 -0.0000 0.0000 -79.8822 -19.8675 46.1446 23.1781 -34.2830 -7.2384 -0.0000 0.0000 -16.3426 12.6280 31.5455 6.6852 -7.1250 0.0000 -0.0000 -22.4039 60.7435 -8.8532 0.0000 -0.0000 0.0000 85.2388 -1.9400 30.9473 -44.7311 50.6361 -22.0306 0.0000 0.0000 8.2653 -24.5598 35.3571 -14.8126 7.1250 -0.0000 -0.0000 4.6481 7.8673 5.2568
